# xmcd CD database file generated by Grip 2.99.0
# 
# Track frame offsets:
#       150
#       13845
#       29365
#       45390
#       59092
#       78817
#       91722
#       110770
#       131205
#       150970
#       167897
# 
# Disc length: 2444 seconds
# 
# Revision: 2
# Processed by: cddbd v1.4PL0 Copyright (c) Steve Scherf et al.
# Submitted via: Grip 2.99.0
# 
DISCID=85098a0b
DTITLE=Tinsley Ellis - Fanning The Flames
DYEAR=1989
DGENRE=Blues
TTITLE0=Leavin' Here
TTITLE1=Pawnbroker
TTITLE2=Loneliness Is Here To Stay
TTITLE3=Put Me Where You Want Me
TTITLE4=Born In Georgia
TTITLE5=Fender Blender
TTITLE6=Deaf, Dumb, Crippled And Blind
TTITLE7=So Many Tears
TTITLE8=Must Be The Devil
TTITLE9=Dangling By A Thread
TTITLE10=Mr. Night Time
EXTD=
EXTT0=
EXTT1=
EXTT2=
EXTT3=
EXTT4=
EXTT5=
EXTT6=
EXTT7=
EXTT8=
EXTT9=
EXTT10=
PLAYORDER=
